<mxfile host="app.diagrams.net" modified="2022-12-20T11:48:13.538Z" agent="5.0 (Windows NT 10.0; Win64; x64) AppleWebKit/537.36 (KHTML, like Gecko) Chrome/106.0.0.0 YaBrowser/22.11.0.2419 Yowser/2.5 Safari/537.36" version="20.7.4" etag="3flBAb7Z2hoO_SxDYfdU" type="github">
  <diagram id="zDiS9sQTQKHM5sG9spb2" name="Страница 1">
    <mxGraphModel dx="956" dy="529" grid="1" gridSize="10" guides="1" tooltips="1" connect="1" arrows="1" fold="1" page="1" pageScale="1" pageWidth="827" pageHeight="1169" math="0" shadow="0">
      <root>
        <mxCell id="0" />
        <mxCell id="1" parent="0" />
        <mxCell id="y97mPnl3I4oNYu8ZyK_2-1" value="Не было распределения" style="rounded=0;whiteSpace=wrap;html=1;" vertex="1" parent="1">
          <mxGeometry x="30" y="60" width="330" height="60" as="geometry" />
        </mxCell>
        <mxCell id="y97mPnl3I4oNYu8ZyK_2-3" value="Показываем чистые остатки" style="rounded=0;whiteSpace=wrap;html=1;" vertex="1" parent="1">
          <mxGeometry x="450" y="60" width="120" height="60" as="geometry" />
        </mxCell>
        <mxCell id="y97mPnl3I4oNYu8ZyK_2-4" value="Статус Распределение завершено&lt;br&gt;(Нет статуса &quot;Загрузка РО&quot;)&lt;br&gt;name =&amp;nbsp;Распределение завершено&lt;br&gt;id = 6 (0xB5E1C5013BD210AF4EB82A48BD215833)" style="rounded=0;whiteSpace=wrap;html=1;" vertex="1" parent="1">
          <mxGeometry x="30" y="140" width="330" height="83" as="geometry" />
        </mxCell>
        <mxCell id="y97mPnl3I4oNYu8ZyK_2-6" value="Остатки - распределение" style="rounded=0;whiteSpace=wrap;html=1;" vertex="1" parent="1">
          <mxGeometry x="450" y="140" width="120" height="83" as="geometry" />
        </mxCell>
        <mxCell id="y97mPnl3I4oNYu8ZyK_2-7" value="Статус загрузка РО&lt;br&gt;(Нет статуса РО загружены)&lt;br&gt;name = &quot;Загрузка расходников&quot;&lt;br&gt;id = 8 (0xA620E73F5FBC87564316A0D8F83863ED)" style="rounded=0;whiteSpace=wrap;html=1;" vertex="1" parent="1">
          <mxGeometry x="30" y="250" width="330" height="84" as="geometry" />
        </mxCell>
        <mxCell id="y97mPnl3I4oNYu8ZyK_2-9" value="Остатки - распределение" style="rounded=0;whiteSpace=wrap;html=1;" vertex="1" parent="1">
          <mxGeometry x="450" y="250" width="120" height="84" as="geometry" />
        </mxCell>
        <mxCell id="y97mPnl3I4oNYu8ZyK_2-10" value="Пусто" style="rounded=0;whiteSpace=wrap;html=1;" vertex="1" parent="1">
          <mxGeometry x="660" y="60" width="120" height="60" as="geometry" />
        </mxCell>
        <mxCell id="y97mPnl3I4oNYu8ZyK_2-11" value="РО + Резервы на завтра&amp;nbsp;" style="rounded=0;whiteSpace=wrap;html=1;" vertex="1" parent="1">
          <mxGeometry x="660" y="140" width="120" height="83" as="geometry" />
        </mxCell>
        <mxCell id="y97mPnl3I4oNYu8ZyK_2-25" value="" style="group" vertex="1" connectable="0" parent="1">
          <mxGeometry x="390" y="180" width="10" height="1" as="geometry" />
        </mxCell>
        <mxCell id="y97mPnl3I4oNYu8ZyK_2-5" value="" style="shape=flexArrow;endArrow=classic;html=1;rounded=0;" edge="1" parent="y97mPnl3I4oNYu8ZyK_2-25">
          <mxGeometry width="50" height="50" relative="1" as="geometry">
            <mxPoint x="-30" y="1" as="sourcePoint" />
            <mxPoint x="60" y="1" as="targetPoint" />
            <Array as="points">
              <mxPoint y="1" />
            </Array>
          </mxGeometry>
        </mxCell>
        <mxCell id="y97mPnl3I4oNYu8ZyK_2-23" value="Остатки" style="edgeLabel;resizable=0;html=1;align=center;verticalAlign=middle;" connectable="0" vertex="1" parent="y97mPnl3I4oNYu8ZyK_2-25">
          <mxGeometry x="10" as="geometry" />
        </mxCell>
        <mxCell id="y97mPnl3I4oNYu8ZyK_2-26" value="" style="group" vertex="1" connectable="0" parent="1">
          <mxGeometry x="390" y="90" width="10" height="1" as="geometry" />
        </mxCell>
        <mxCell id="y97mPnl3I4oNYu8ZyK_2-27" value="" style="shape=flexArrow;endArrow=classic;html=1;rounded=0;" edge="1" parent="y97mPnl3I4oNYu8ZyK_2-26">
          <mxGeometry width="50" height="50" relative="1" as="geometry">
            <mxPoint x="-30" y="1" as="sourcePoint" />
            <mxPoint x="60" y="1" as="targetPoint" />
            <Array as="points">
              <mxPoint y="1" />
            </Array>
          </mxGeometry>
        </mxCell>
        <mxCell id="y97mPnl3I4oNYu8ZyK_2-28" value="Остатки" style="edgeLabel;resizable=0;html=1;align=center;verticalAlign=middle;" connectable="0" vertex="1" parent="y97mPnl3I4oNYu8ZyK_2-26">
          <mxGeometry x="10" as="geometry" />
        </mxCell>
        <mxCell id="y97mPnl3I4oNYu8ZyK_2-29" value="" style="group" vertex="1" connectable="0" parent="1">
          <mxGeometry x="390" y="290" width="10" height="1" as="geometry" />
        </mxCell>
        <mxCell id="y97mPnl3I4oNYu8ZyK_2-30" value="" style="shape=flexArrow;endArrow=classic;html=1;rounded=0;" edge="1" parent="y97mPnl3I4oNYu8ZyK_2-29">
          <mxGeometry width="50" height="50" relative="1" as="geometry">
            <mxPoint x="-30" y="1" as="sourcePoint" />
            <mxPoint x="60" y="1" as="targetPoint" />
            <Array as="points">
              <mxPoint y="1" />
            </Array>
          </mxGeometry>
        </mxCell>
        <mxCell id="y97mPnl3I4oNYu8ZyK_2-31" value="Остатки" style="edgeLabel;resizable=0;html=1;align=center;verticalAlign=middle;" connectable="0" vertex="1" parent="y97mPnl3I4oNYu8ZyK_2-29">
          <mxGeometry x="10" as="geometry" />
        </mxCell>
        <mxCell id="y97mPnl3I4oNYu8ZyK_2-35" value="" style="group" vertex="1" connectable="0" parent="1">
          <mxGeometry x="600" y="84" width="4" height="5" as="geometry" />
        </mxCell>
        <mxCell id="y97mPnl3I4oNYu8ZyK_2-33" value="" style="shape=flexArrow;endArrow=classic;html=1;rounded=0;" edge="1" parent="y97mPnl3I4oNYu8ZyK_2-35">
          <mxGeometry width="50" height="50" relative="1" as="geometry">
            <mxPoint x="-30" y="5" as="sourcePoint" />
            <mxPoint x="60" y="5" as="targetPoint" />
            <Array as="points">
              <mxPoint y="5" />
            </Array>
          </mxGeometry>
        </mxCell>
        <mxCell id="y97mPnl3I4oNYu8ZyK_2-34" value="ТТ в пути" style="edgeLabel;resizable=0;html=1;align=center;verticalAlign=middle;" connectable="0" vertex="1" parent="y97mPnl3I4oNYu8ZyK_2-35">
          <mxGeometry x="20" y="-4" as="geometry">
            <mxPoint x="-16" y="4" as="offset" />
          </mxGeometry>
        </mxCell>
        <mxCell id="y97mPnl3I4oNYu8ZyK_2-36" value="" style="group" vertex="1" connectable="0" parent="1">
          <mxGeometry x="600" y="181" width="4" height="5" as="geometry" />
        </mxCell>
        <mxCell id="y97mPnl3I4oNYu8ZyK_2-37" value="" style="shape=flexArrow;endArrow=classic;html=1;rounded=0;" edge="1" parent="y97mPnl3I4oNYu8ZyK_2-36">
          <mxGeometry width="50" height="50" relative="1" as="geometry">
            <mxPoint x="-30" y="5" as="sourcePoint" />
            <mxPoint x="60" y="5" as="targetPoint" />
            <Array as="points">
              <mxPoint y="5" />
            </Array>
          </mxGeometry>
        </mxCell>
        <mxCell id="y97mPnl3I4oNYu8ZyK_2-38" value="ТТ в пути" style="edgeLabel;resizable=0;html=1;align=center;verticalAlign=middle;" connectable="0" vertex="1" parent="y97mPnl3I4oNYu8ZyK_2-36">
          <mxGeometry x="20" y="-4" as="geometry">
            <mxPoint x="-16" y="4" as="offset" />
          </mxGeometry>
        </mxCell>
        <mxCell id="y97mPnl3I4oNYu8ZyK_2-39" value="" style="group" vertex="1" connectable="0" parent="1">
          <mxGeometry x="600" y="290" width="4" height="5" as="geometry" />
        </mxCell>
        <mxCell id="y97mPnl3I4oNYu8ZyK_2-40" value="" style="shape=flexArrow;endArrow=classic;html=1;rounded=0;" edge="1" parent="y97mPnl3I4oNYu8ZyK_2-39">
          <mxGeometry width="50" height="50" relative="1" as="geometry">
            <mxPoint x="-30" y="5" as="sourcePoint" />
            <mxPoint x="60" y="5" as="targetPoint" />
            <Array as="points">
              <mxPoint y="5" />
            </Array>
          </mxGeometry>
        </mxCell>
        <mxCell id="y97mPnl3I4oNYu8ZyK_2-41" value="ТТ в пути" style="edgeLabel;resizable=0;html=1;align=center;verticalAlign=middle;" connectable="0" vertex="1" parent="y97mPnl3I4oNYu8ZyK_2-39">
          <mxGeometry x="20" y="-4" as="geometry">
            <mxPoint x="-16" y="4" as="offset" />
          </mxGeometry>
        </mxCell>
        <mxCell id="y97mPnl3I4oNYu8ZyK_2-42" value="РО + Резервы на завтра&amp;nbsp;" style="rounded=0;whiteSpace=wrap;html=1;" vertex="1" parent="1">
          <mxGeometry x="660" y="250" width="120" height="83" as="geometry" />
        </mxCell>
        <mxCell id="y97mPnl3I4oNYu8ZyK_2-43" value="Статус Расходники загружены&lt;br&gt;name = &quot;Расходники загружены&quot;&lt;br&gt;id = 9 (&lt;span style=&quot;font-family: Consolas, &amp;quot;Courier New&amp;quot;, monospace; background-color: rgb(255, 255, 255);&quot;&gt;&lt;font style=&quot;font-size: 12px;&quot;&gt;0xA6DC1322F74AC1E64EDEC2F3F9DA0668&lt;/font&gt;&lt;/span&gt;&lt;span style=&quot;background-color: initial;&quot;&gt;)&lt;/span&gt;" style="rounded=0;whiteSpace=wrap;html=1;" vertex="1" parent="1">
          <mxGeometry x="29" y="350" width="330" height="84" as="geometry" />
        </mxCell>
        <mxCell id="y97mPnl3I4oNYu8ZyK_2-44" value="Остатки - распределение" style="rounded=0;whiteSpace=wrap;html=1;" vertex="1" parent="1">
          <mxGeometry x="449" y="350" width="120" height="84" as="geometry" />
        </mxCell>
        <mxCell id="y97mPnl3I4oNYu8ZyK_2-45" value="РО + Резервы на завтра&amp;nbsp;" style="rounded=0;whiteSpace=wrap;html=1;" vertex="1" parent="1">
          <mxGeometry x="659" y="350" width="120" height="83" as="geometry" />
        </mxCell>
        <mxCell id="y97mPnl3I4oNYu8ZyK_2-46" value="" style="group" vertex="1" connectable="0" parent="1">
          <mxGeometry x="390" y="390" width="10" height="1" as="geometry" />
        </mxCell>
        <mxCell id="y97mPnl3I4oNYu8ZyK_2-47" value="" style="shape=flexArrow;endArrow=classic;html=1;rounded=0;" edge="1" parent="y97mPnl3I4oNYu8ZyK_2-46">
          <mxGeometry width="50" height="50" relative="1" as="geometry">
            <mxPoint x="-30" y="1" as="sourcePoint" />
            <mxPoint x="60" y="1" as="targetPoint" />
            <Array as="points">
              <mxPoint y="1" />
            </Array>
          </mxGeometry>
        </mxCell>
        <mxCell id="y97mPnl3I4oNYu8ZyK_2-48" value="Остатки" style="edgeLabel;resizable=0;html=1;align=center;verticalAlign=middle;" connectable="0" vertex="1" parent="y97mPnl3I4oNYu8ZyK_2-46">
          <mxGeometry x="10" as="geometry" />
        </mxCell>
        <mxCell id="y97mPnl3I4oNYu8ZyK_2-49" value="" style="group" vertex="1" connectable="0" parent="1">
          <mxGeometry x="600" y="390" width="4" height="5" as="geometry" />
        </mxCell>
        <mxCell id="y97mPnl3I4oNYu8ZyK_2-50" value="" style="shape=flexArrow;endArrow=classic;html=1;rounded=0;" edge="1" parent="y97mPnl3I4oNYu8ZyK_2-49">
          <mxGeometry width="50" height="50" relative="1" as="geometry">
            <mxPoint x="-30" y="5" as="sourcePoint" />
            <mxPoint x="60" y="5" as="targetPoint" />
            <Array as="points">
              <mxPoint y="5" />
            </Array>
          </mxGeometry>
        </mxCell>
        <mxCell id="y97mPnl3I4oNYu8ZyK_2-51" value="ТТ в пути" style="edgeLabel;resizable=0;html=1;align=center;verticalAlign=middle;" connectable="0" vertex="1" parent="y97mPnl3I4oNYu8ZyK_2-49">
          <mxGeometry x="20" y="-4" as="geometry">
            <mxPoint x="-16" y="4" as="offset" />
          </mxGeometry>
        </mxCell>
        <mxCell id="y97mPnl3I4oNYu8ZyK_2-52" value="Статус Отмечено&lt;br&gt;name = &quot;Отмечено&quot;&lt;br&gt;id = 10 (&lt;span style=&quot;font-family: Consolas, &amp;quot;Courier New&amp;quot;, monospace; background-color: rgb(255, 255, 255);&quot;&gt;&lt;font style=&quot;font-size: 12px;&quot;&gt;0x97A1DF8F495DD3294B4C016DD55C8AEE&lt;/font&gt;&lt;/span&gt;&lt;span style=&quot;background-color: initial;&quot;&gt;)&lt;/span&gt;" style="rounded=0;whiteSpace=wrap;html=1;" vertex="1" parent="1">
          <mxGeometry x="29" y="444" width="330" height="84" as="geometry" />
        </mxCell>
        <mxCell id="y97mPnl3I4oNYu8ZyK_2-53" value="Остатки - распределение" style="rounded=0;whiteSpace=wrap;html=1;" vertex="1" parent="1">
          <mxGeometry x="449" y="444" width="120" height="84" as="geometry" />
        </mxCell>
        <mxCell id="y97mPnl3I4oNYu8ZyK_2-54" value="РО + Резервы на завтра&amp;nbsp;" style="rounded=0;whiteSpace=wrap;html=1;" vertex="1" parent="1">
          <mxGeometry x="659" y="444" width="120" height="83" as="geometry" />
        </mxCell>
        <mxCell id="y97mPnl3I4oNYu8ZyK_2-55" value="" style="group" vertex="1" connectable="0" parent="1">
          <mxGeometry x="390" y="484" width="10" height="1" as="geometry" />
        </mxCell>
        <mxCell id="y97mPnl3I4oNYu8ZyK_2-56" value="" style="shape=flexArrow;endArrow=classic;html=1;rounded=0;" edge="1" parent="y97mPnl3I4oNYu8ZyK_2-55">
          <mxGeometry width="50" height="50" relative="1" as="geometry">
            <mxPoint x="-30" y="1" as="sourcePoint" />
            <mxPoint x="60" y="1" as="targetPoint" />
            <Array as="points">
              <mxPoint y="1" />
            </Array>
          </mxGeometry>
        </mxCell>
        <mxCell id="y97mPnl3I4oNYu8ZyK_2-57" value="Остатки" style="edgeLabel;resizable=0;html=1;align=center;verticalAlign=middle;" connectable="0" vertex="1" parent="y97mPnl3I4oNYu8ZyK_2-55">
          <mxGeometry x="10" as="geometry" />
        </mxCell>
        <mxCell id="y97mPnl3I4oNYu8ZyK_2-58" value="" style="group" vertex="1" connectable="0" parent="1">
          <mxGeometry x="600" y="484" width="4" height="5" as="geometry" />
        </mxCell>
        <mxCell id="y97mPnl3I4oNYu8ZyK_2-59" value="" style="shape=flexArrow;endArrow=classic;html=1;rounded=0;" edge="1" parent="y97mPnl3I4oNYu8ZyK_2-58">
          <mxGeometry width="50" height="50" relative="1" as="geometry">
            <mxPoint x="-30" y="5" as="sourcePoint" />
            <mxPoint x="60" y="5" as="targetPoint" />
            <Array as="points">
              <mxPoint y="5" />
            </Array>
          </mxGeometry>
        </mxCell>
        <mxCell id="y97mPnl3I4oNYu8ZyK_2-60" value="ТТ в пути" style="edgeLabel;resizable=0;html=1;align=center;verticalAlign=middle;" connectable="0" vertex="1" parent="y97mPnl3I4oNYu8ZyK_2-58">
          <mxGeometry x="20" y="-4" as="geometry">
            <mxPoint x="-16" y="4" as="offset" />
          </mxGeometry>
        </mxCell>
      </root>
    </mxGraphModel>
  </diagram>
</mxfile>
